<?xml version="1.0" encoding="utf-8"?>
<!-- Generator: Adobe Illustrator 28.1.0, SVG Export Plug-In . SVG Version: 6.00 Build 0)  -->
<svg version="1.1" id="Layer_1" xmlns="http://www.w3.org/2000/svg" xmlns:xlink="http://www.w3.org/1999/xlink" x="0px" y="0px"
	 viewBox="0 0 512 512" style="enable-background:new 0 0 512 512;" xml:space="preserve">
<style type="text/css">
	.st0{fill:#034A7F;}
	.st1{fill:#027EEA;}
	.st2{fill:#62D134;}
	.st3{fill:#5AB8FF;}
</style>
<g>
	<polygon class="st0" points="66.5,305.7 66.5,408.9 149.4,453.3 149.4,350.1 	"/>
	<polygon class="st1" points="66.5,184.6 66.5,287.8 149.4,332.1 149.4,229 	"/>
	<polygon class="st0" points="66.5,63.5 66.5,166.7 149.4,211.1 149.4,107.9 	"/>
	<polygon class="st2" points="362.6,350.1 362.6,453.3 445.5,408.9 445.5,305.7 	"/>
	<polygon class="st3" points="165.3,229 165.3,332.1 248.2,287.8 248.2,184.6 	"/>
	<polygon class="st2" points="165.3,107.9 165.3,211.1 248.2,166.7 248.2,63.5 	"/>
	<polygon class="st3" points="239.7,50.4 157.4,6.2 75.1,50.4 157.4,94.6 	"/>
	<polygon class="st1" points="165.3,358.3 165.3,461.4 248.2,505.8 248.2,402.6 	"/>
	<polygon class="st0" points="264,402.6 264,505.8 346.9,461.4 346.9,358.3 	"/>
	<polygon class="st2" points="173.7,345.2 256,389.4 338.3,345.2 256,301.1 	"/>
	<polygon class="st3" points="437.1,292.6 354.8,248.4 272.5,292.6 354.8,336.8 	"/>
</g>
</svg>
